<?xml version="1.0" encoding="utf-8"?>
<!-- Generator: Adobe Illustrator 26.3.1, SVG Export Plug-In . SVG Version: 6.00 Build 0)  -->
<svg version="1.1" id="Capa_1" xmlns="http://www.w3.org/2000/svg" xmlns:xlink="http://www.w3.org/1999/xlink" x="0px" y="0px"
	 viewBox="0 0 410 404" style="enable-background:new 0 0 410 404;" xml:space="preserve">
<style type="text/css">
	.st0{fill:#F78419;}
</style>
<g>
	<path class="st0" d="M135.9,51c0-17.4,14.1-31.5,31.5-31.5h75.2c17.4,0,31.5,14.1,31.5,31.5v15.3c0,5.4,4.4,9.7,9.7,9.7h0
		c5.4,0,9.7-4.4,9.7-9.7V51c0-28.2-22.8-51-51-51h-75.2c-28.2,0-51,22.8-51,51v15.3c0,5.4,4.4,9.7,9.7,9.7h0c5.4,0,9.7-4.4,9.7-9.7
		V51z"/>
	<path class="st0" d="M36.3,129l23.2,244.6c1.6,17.3,15.2,30.4,31.3,30.4h23.9h180.4h23.9c16.1,0,29.7-13.1,31.3-30.4L373.7,129
		c1.9-19.9-12.7-37.3-31.3-37.3h-47.2H114.8H67.6C49,91.7,34.4,109,36.3,129z M315.5,218.9c-1.2,1.3-2.8,1.9-4.4,1.9
		c-1.5,0-2.9-0.5-4.1-1.6c-2.1-2-4.2-3.6-6.3-4.9c0,0,0,0.1,0,0.1c-11,47.8-49.7,83-95.7,83c-46,0-84.7-35.3-95.7-83
		c0-0.2,0-0.3-0.1-0.5c-3.6,2.2-5.8,4.7-5.8,4.7c-2.2,2.5-6,2.8-8.5,0.6c-2.5-2.2-2.8-5.9-0.7-8.4c0.4-0.5,10.1-11.7,25.1-12.6
		c10.1-0.6,19.8,3.5,29,12.1c2.4,2.3,2.6,6.1,0.3,8.5c-1.2,1.3-2.8,1.9-4.4,1.9c-1.5,0-2.9-0.5-4.1-1.6c-3.1-2.8-6.1-5-9.2-6.5
		c9.9,35.2,39.2,60.8,73.9,60.8c34.8,0,64.2-25.8,74-61.2c-5.4,2.5-8.8,6.3-8.8,6.3c-2.2,2.5-5.9,2.8-8.5,0.6
		c-2.5-2.2-2.8-5.9-0.7-8.4c0.4-0.5,10.1-11.7,25.1-12.6c10.1-0.6,19.8,3.5,29,12.1C317.6,212.6,317.8,216.4,315.5,218.9z"/>
</g>
</svg>
