<?xml version="1.0" encoding="UTF-8"?><svg id="Capa_1" xmlns="http://www.w3.org/2000/svg" viewBox="0 0 50.66 56.39"><defs><style>.cls-1{fill:#fff;}</style></defs><path id="Trazado_8" class="cls-1" d="M15.62,7.08c0-2.45,1.99-4.43,4.43-4.43h10.45c2.45,0,4.44,1.99,4.44,4.43h0v2.11c0,.76,.61,1.37,1.37,1.37h0c.76,0,1.37-.61,1.37-1.37h0v-2.11C37.69,3.17,34.52,0,30.61,0c-.04,0-.07,0-.11,0h-10.45C16.15,0,12.98,3.17,12.98,7.08h0v2.11c-.06,.7,.46,1.31,1.16,1.37,.04,0,.07,0,.11,0h0c.76,0,1.37-.61,1.37-1.37v-2.11Z"/><path id="Trazado_9" class="cls-1" d="M1.78,17.95l3.17,34.21c.16,2.34,2.08,4.17,4.43,4.22h31.89c2.33-.05,4.22-1.9,4.33-4.22l3.28-34.21c.29-2.55-1.54-4.85-4.08-5.15-.12-.01-.24-.02-.35-.03H6.12c-2.51,.09-4.46,2.19-4.37,4.7,0,.16,.02,.32,.04,.47Zm38.97,12.57c-.16,.18-.39,.3-.63,.32-.23,.02-.44-.11-.53-.32l-.95-.63h0c-1.48,6.65-6.86,11.62-13.3,11.62s-11.83-4.96-13.41-11.61h0l-.85,.63c-.28,.36-.8,.42-1.16,.14s-.42-.8-.14-1.16l.03-.03c.93-1.03,2.21-1.67,3.59-1.8,1.52-.07,3,.55,4.01,1.69,.31,.33,.31,.84,0,1.16-.09,.21-.3,.34-.53,.32-.24-.02-.47-.13-.63-.32l-1.27-.84c1.37,4.86,5.49,8.45,10.35,8.45s8.98-3.59,10.24-8.55c-.44,.25-.83,.57-1.16,.95-.3,.34-.81,.39-1.16,.11-.34-.22-.44-.68-.22-1.02,.03-.05,.07-.1,.12-.14,.86-1.06,2.12-1.72,3.49-1.8,1.52-.07,3,.55,4.01,1.69,.34,.22,.44,.68,.22,1.02-.03,.05-.07,.1-.12,.14h0Z"/></svg>