<svg xmlns="http://www.w3.org/2000/svg" width="241.004" height="56.386" viewBox="0 0 241.004 56.386">
  <g id="Logo" transform="translate(-751 -938)">
    <g id="Grupo_2" data-name="Grupo 2" transform="translate(751 938)">
      <g id="Grupo_1" data-name="Grupo 1" transform="translate(0 0)">
        <g id="Logo_-_Tienddi_Mesa_de_trabajo_1_copia_12" data-name="Logo - Tienddi_Mesa de trabajo 1 copia 12" transform="translate(0 0)">
          <path id="Trazado_1" data-name="Trazado 1" d="M72.9,32.471V43.03c0,3.273.528,5.174,4.435,5.174h1.8v6.652a10.031,10.031,0,0,1-3.062.422c-7.391,0-10.348-4.963-10.348-10.981V32.471H61.6V25.819h4.118V19.8H72.9v6.019h6.23v6.652Z" transform="translate(-2.53 -3.433)" fill="#fff"/>
          <path id="Trazado_2" data-name="Trazado 2" d="M83.6,18.112a3.907,3.907,0,1,1,3.8,3.8,3.8,3.8,0,0,1-3.8-3.8Zm.211,8.025H91.1V55.069H83.811Z" transform="translate(-1.3 -3.751)" fill="#fff"/>
          <path id="Trazado_3" data-name="Trazado 3" d="M124.643,42.851H103.208c1.056,3.8,4.224,5.913,8.236,5.913a8.764,8.764,0,0,0,6.441-2.851l5.808,3.379A15.311,15.311,0,0,1,111.445,55.2C101.836,55.2,95.5,48.764,95.5,40a14.677,14.677,0,0,1,14.783-15.1C118.942,24.9,125.911,31.447,124.643,42.851Zm-7.075-5.6a6.758,6.758,0,0,0-7.18-5.913,7.18,7.18,0,0,0-7.18,5.913Z" transform="translate(-0.635 -3.147)" fill="#fff"/>
          <path id="Trazado_4" data-name="Trazado 4" d="M154.287,36.938V54.466H147V38.416c0-3.7-1.478-6.547-5.6-6.547s-6.124,3.168-6.124,6.547v16.05H128.1V25.534h7.18v3.59a9.609,9.609,0,0,1,8.447-4.224C151.013,24.9,154.287,30.814,154.287,36.938Z" transform="translate(1.188 -3.148)" fill="#fff"/>
          <path id="Trazado_5" data-name="Trazado 5" d="M188.316,15.1V55.013H181.03V51.635a11.193,11.193,0,0,1-9.186,4.118c-8.975,0-14.044-7.6-14.044-15.205s5.068-15.1,14.044-15.1c4.435,0,7.286,1.689,9.186,4.118V15.1Zm-7.6,25.447c0-4.435-2.851-8.131-7.814-8.131s-7.708,3.7-7.708,8.131,2.851,8.236,7.708,8.236S180.713,44.982,180.713,40.547Z" transform="translate(2.849 -3.695)" fill="#fff"/>
          <path id="Trazado_6" data-name="Trazado 6" d="M222.016,15.1V55.013h-7.18V51.635a11.3,11.3,0,0,1-9.292,4.118c-8.87,0-14.044-7.6-14.044-15.205s5.174-15.1,14.044-15.1c4.54,0,7.391,1.689,9.292,4.118V15.1Zm-7.6,25.447c0-4.435-2.745-8.131-7.708-8.131s-7.814,3.7-7.814,8.131,2.851,8.236,7.814,8.236S214.413,44.982,214.413,40.547Z" transform="translate(4.733 -3.695)" fill="#fff"/>
          <path id="Trazado_7" data-name="Trazado 7" d="M226.7,18.1a3.8,3.8,0,1,1,3.8,3.8A3.8,3.8,0,0,1,226.7,18.1Zm.211,8.025h7.18V55.058h-7.18Z" transform="translate(6.701 -3.74)" fill="#fff"/>
          <path id="Trazado_8" data-name="Trazado 8" d="M18.94,11.375A4.435,4.435,0,0,1,23.375,6.94H33.828a4.435,4.435,0,0,1,4.435,4.435v2.112a1.373,1.373,0,0,0,1.373,1.373h0a1.373,1.373,0,0,0,1.373-1.373V11.375A7.075,7.075,0,0,0,33.828,4.3H23.375A7.075,7.075,0,0,0,16.3,11.375v2.112a1.267,1.267,0,0,0,1.267,1.373h0a1.373,1.373,0,0,0,1.373-1.373Z" transform="translate(-5.063 -4.299)" fill="#fff"/>
          <path id="Trazado_9" data-name="Trazado 9" d="M5.7,21.574,8.87,55.785A4.54,4.54,0,0,0,13.3,60.009H45.193a4.435,4.435,0,0,0,4.329-4.224L52.8,21.574A4.646,4.646,0,0,0,48.361,16.4H10.032A4.54,4.54,0,0,0,5.7,21.574ZM44.665,34.139a.95.95,0,0,1-.634.317.528.528,0,0,1-.528-.317l-.95-.634h0c-1.478,6.652-6.863,11.615-13.3,11.615s-11.826-4.963-13.41-11.615h0l-.845.634a.825.825,0,1,1-1.267-1.056,5.491,5.491,0,0,1,3.59-1.8,5.068,5.068,0,0,1,4.012,1.689.845.845,0,0,1,0,1.161.528.528,0,0,1-.528.317.95.95,0,0,1-.634-.317L18.9,33.295c1.373,4.857,5.491,8.447,10.348,8.447s8.975-3.59,10.242-8.553a4.435,4.435,0,0,0-1.162.95.845.845,0,0,1-1.162.106.739.739,0,0,1-.106-1.161,4.857,4.857,0,0,1,3.485-1.8,5.068,5.068,0,0,1,4.012,1.689.739.739,0,0,1,.106,1.162Z" transform="translate(-5.658 -3.623)" fill="#fff"/>
        </g>
      </g>
    </g>
  </g>
</svg>
